<?xml version="1.0" encoding="UTF-8"?>
<svg width="24px" height="24px" viewBox="0 0 24 24" version="1.1" xmlns="http://www.w3.org/2000/svg" xmlns:xlink="http://www.w3.org/1999/xlink">
    <title>icon/fill/24/头像</title>
    <g id="icon/fill/24/头像" stroke="none" stroke-width="1" fill="none" fill-rule="evenodd">
        <g id="icon/fill/24/位置">
            <rect id="Rectangle-14" opacity="0.65" x="1" y="1" width="24" height="24"></rect>
            <path d="M12.0000117,0 C5.3725241,0 0,5.37251884 0,12 C0,18.6275047 5.3725241,24 12.0000117,24 C18.6274994,24 24,18.6274812 24,12 C24,5.37251884 18.6274994,0 12.0000117,0 Z M12.0000117,1.63636898 C17.7240779,1.63636898 22.3636529,6.27645639 22.3636529,12 C22.3636529,14.0524105 21.7670113,15.9654356 20.7377856,17.5752057 C19.0126425,15.751611 16.7210752,14.468781 14.1445334,14.0076483 C15.7894335,13.2145001 16.9266994,11.5365881 16.9266994,9.58862265 C16.9266994,6.87732696 14.728886,4.67953922 12.0175877,4.67953922 C9.30628933,4.67953922 7.10849944,6.87732696 7.10849944,9.58859916 C7.10849944,11.5365646 8.24574186,13.2144766 9.89064193,14.0076248 C7.30376142,14.4706138 5.00415803,15.7619498 3.27666519,17.5972931 C2.23862808,15.982941 1.63637058,14.0617859 1.63637058,12 C1.63637058,6.27645639 6.27697947,1.63636898 12.0000117,1.63636898 Z" id="形状结合" fill="#505255"></path>
        </g>
    </g>
</svg>