<?xml version="1.0" encoding="UTF-8"?>
<svg width="16px" height="16px" viewBox="0 0 16 16" version="1.1" xmlns="http://www.w3.org/2000/svg" xmlns:xlink="http://www.w3.org/1999/xlink">
    <title>icon_设备状态_选中</title>
    <g id="新" stroke="none" stroke-width="1" fill="none" fill-rule="evenodd">
        <g id="设备管理-设备状态" transform="translate(-272, -224)">
            <g id="1-基础标签-2-图标-文字-小-选中" transform="translate(272, 220)">
                <g id="icon_设备状态_选中" transform="translate(0, 4)">
                    <rect id="矩形" x="0" y="0" width="16" height="16"></rect>
                    <path d="M13,1 C13.8284271,1 14.5,1.67157288 14.5,2.5 L14.5,13.5 C14.5,14.3284271 13.8284271,15 13,15 L3,15 C2.17157287,15 1.5,14.3284271 1.5,13.5 L1.5,2.5 C1.5,1.67157288 2.17157287,1 3,1 Z M13.5,11.305 L2.5,11.305 L2.5,13.5 C2.5,13.7761424 2.72385762,14 3,14 L13,14 C13.2761424,14 13.5,13.7761424 13.5,13.5 L13.5,11.305 Z M4.65499999,12.055 C4.93114237,12.055 5.15499999,12.2788576 5.15499999,12.555 C5.15499999,12.8311424 4.93114237,13.055 4.65499999,13.055 L3.65499999,13.055 C3.37885762,13.055 3.15499999,12.8311424 3.15499999,12.555 C3.15499999,12.2788576 3.37885762,12.055 3.65499999,12.055 Z M12.24,12.055 C12.5161424,12.055 12.74,12.2788576 12.74,12.555 C12.74,12.8311424 12.5161424,13.055 12.24,13.055 L6.23999999,13.055 C5.96385762,13.055 5.73999999,12.8311424 5.73999999,12.555 C5.73999999,12.2788576 5.96385762,12.055 6.23999999,12.055 Z M13,2.025 L2.99999999,2.025 C2.7430454,2.03755646 2.53755645,2.24304541 2.525,2.50000001 L2.525,10.305 L13.5,10.305 L13.5,2.525 C13.5,2.24885764 13.2761424,2.025 13,2.025 Z M10.8967794,3.82667115 L10.983689,3.84222605 C11.1561675,3.88909537 11.2905398,4.0244206 11.336189,4.19722604 C11.3818383,4.37003149 11.3318293,4.55406388 11.205,4.68 L7.315,8.57 C7.10925474,8.75634385 6.79574525,8.75634385 6.58999999,8.57 L4.82499999,6.8 C4.6551116,6.60161986 4.66653386,6.30590292 4.85121838,6.12121839 C5.03590291,5.93653386 5.33161986,5.9251116 5.53,6.095 L6.94999999,7.5 L10.5,3.97 C10.6268293,3.84406388 10.8112105,3.79535672 10.983689,3.84222605 Z" id="形状结合" fill="#2979FF"></path>
                </g>
            </g>
        </g>
    </g>
</svg>