<?xml version="1.0" encoding="UTF-8"?>
<svg width="16px" height="16px" viewBox="0 0 16 16" version="1.1" xmlns="http://www.w3.org/2000/svg" xmlns:xlink="http://www.w3.org/1999/xlink">
    <title>icon_证书升级</title>
    <g id="新" stroke="none" stroke-width="1" fill="none" fill-rule="evenodd">
        <g id="设备管理-设备状态" transform="translate(-787, -224)">
            <g id="1-基础标签-2-图标-文字-中-默认备份-4" transform="translate(787, 220)">
                <g id="icon_证书升级" transform="translate(0, 4)">
                    <rect id="矩形" x="0" y="0" width="16" height="16"></rect>
                    <g id="编组" transform="translate(2, 0)" fill="#505255" fill-rule="nonzero">
                        <path d="M0.00113441713,7.988514 C0.00113441713,5.82148839 -0.00141802141,3.65446279 0.00113441713,1.48743718 C0.00113441713,0.430725049 0.435050033,0.0019143289 1.5045244,0.0019143289 C4.08249362,-0.000638109633 8.67689419,-0.000638109633 11.2548634,0.0019143289 C12.3422049,0.0019143289 12.7633582,0.430725049 12.7633582,1.53082873 L12.7633582,14.4844859 C12.7633582,15.5743798 12.3371,15.9980857 11.2369963,15.9980857 C8.67434173,16.0006381 4.09525583,16.0006381 1.53260128,15.9980857 C0.412078031,15.9980857 0.00113441713,15.5769323 0.00113441713,14.4410944 L0.00113441713,7.988514 L0.00113441713,7.988514 Z M11.5815763,1.19135358 L1.18546879,1.19135358 L1.18546879,14.8009891 L11.5815763,14.8009891 L11.5815763,1.19135358 Z" id="形状"></path>
                        <path d="M9.99180799,10.8255563 C9.99180799,11.1504867 9.72839986,11.4138949 9.40346947,11.4138949 L3.59790138,11.4138949 C3.27297099,11.4138949 3.00956286,11.1504867 3.00956286,10.8255563 C3.00956286,10.500626 3.27297099,10.2372178 3.59790138,10.2372178 L9.40346947,10.2372178 C9.72839986,10.2372178 9.99180799,10.500626 9.99180799,10.8255563 Z" id="路径"></path>
                        <path d="M9.99180799,12.8255563 C9.99180799,13.1504867 9.72839986,13.4138949 9.40346947,13.4138949 L3.59790138,13.4138949 C3.27297099,13.4138949 3.00956286,13.1504867 3.00956286,12.8255563 C3.00956286,12.500626 3.27297099,12.2372178 3.59790138,12.2372178 L9.40346947,12.2372178 C9.72839986,12.2372178 9.99180799,12.500626 9.99180799,12.8255563 Z" id="路径备份"></path>
                        <path d="M8.35018126,2.78407912 C8.85602941,3.27600484 9.12772765,3.88395078 9.17869983,4.63668227 L9.18738313,4.87708382 C9.17717336,5.23953097 9.08528535,5.61218791 8.93213866,5.92869107 C9.2588516,6.35494936 9.57790718,6.78376008 9.90206766,7.21767567 C9.95822144,7.29424902 9.99650811,7.3733748 10.0143752,7.4525006 C10.0654241,7.67711573 9.93014456,7.89152109 9.6927672,7.96298954 L9.38136893,8.05743001 C9.21035514,8.10847891 9.03423645,8.16208025 8.8606702,8.21823403 L8.44462171,8.99162479 C8.36039103,9.14987637 8.23021635,9.24431682 8.0796221,9.25707903 C7.92902785,9.2723937 7.78609096,9.20347769 7.67378338,9.06819813 L6.44605745,7.56225572 L6.43074279,7.55970328 C6.37969388,7.55204594 6.34906455,7.54949351 6.26228143,7.65924862 L5.82932299,8.20004785 L5.13920573,9.04267367 C5.02647275,9.18731222 4.91019471,9.24155167 4.81252825,9.25561375 L4.73719568,9.25931243 L4.71805234,9.25707903 C4.61084966,9.24686926 4.45770298,9.18816303 4.33773809,8.96354789 L4.24074518,8.78232431 C4.14119983,8.59599585 4.03910205,8.40201003 3.93445181,8.21568157 L3.12277437,7.965542 C2.95431302,7.91449309 2.83690056,7.80729041 2.79095656,7.66690596 C2.74501255,7.5265215 2.77819433,7.37082236 2.88284457,7.2304379 C3.20445261,6.79907474 3.53371798,6.36005423 3.8604309,5.92869107 C3.44693485,4.99704873 3.51585086,4.09093084 4.06717893,3.23841428 C4.51130432,2.55180663 5.1774924,2.12810081 5.99172229,2.01068835 C6.89784018,1.88051367 7.69165051,2.14086304 8.35018126,2.78407912 Z M8.40888747,6.70718671 C8.13322344,6.99306052 7.80906296,7.21001834 7.43895847,7.36061259 L7.96986698,8.011486 C8.02091588,7.91449309 8.07196476,7.82005264 8.11790877,7.72305974 C8.20213945,7.54949349 8.33486657,7.43973837 8.52374749,7.38868947 C8.63095017,7.35806013 8.73815285,7.32743079 8.84790799,7.29169658 L8.40888747,6.70718671 Z M4.39389186,6.70973917 L3.95997625,7.29169658 C4.07483626,7.32743081 4.18459138,7.36061259 4.29689896,7.39124192 C4.47557008,7.44229083 4.60063989,7.54438861 4.67976567,7.70519263 C4.73081457,7.80473798 4.78186346,7.90428332 4.83801725,8.00893354 L5.36126842,7.36571746 C5.00392615,7.22533301 4.68487057,7.00837519 4.39389186,6.70973917 Z M6.40521834,2.88107202 L6.39500855,2.88107202 C5.34850619,2.88617692 4.50109454,3.73614103 4.50363551,4.77498603 C4.50619942,5.28292254 4.70273767,5.75767726 5.06007995,6.1124671 C5.41742222,6.46980937 5.88962449,6.6663476 6.39500855,6.6663476 C6.90294506,6.6663476 7.38025224,6.46980935 7.73759451,6.1073622 C8.09493679,5.74746749 8.29147502,5.27271276 8.28897122,4.76988114 C8.28637014,4.26449707 8.08727945,3.78974235 7.72738472,3.43240009 C7.37514734,3.07761028 6.90294506,2.88107202 6.40521834,2.88107202 Z" id="形状"></path>
                    </g>
                </g>
            </g>
        </g>
    </g>
</svg>