<?xml version="1.0" encoding="UTF-8"?>
<svg width="16px" height="16px" viewBox="0 0 16 16" version="1.1" xmlns="http://www.w3.org/2000/svg" xmlns:xlink="http://www.w3.org/1999/xlink">
    <title>icon_重启重置</title>
    <g id="新" stroke="none" stroke-width="1" fill="none" fill-rule="evenodd">
        <g id="设备管理-设备状态" transform="translate(-672, -224)">
            <g id="1-基础标签-2-图标-文字-中-默认备份-3" transform="translate(672, 220)">
                <g id="icon_重启重置" transform="translate(0, 4)">
                    <rect id="矩形" x="0" y="0" width="16" height="16"></rect>
                    <path d="M12.9442308,0.5 C13.7496154,0.5 14.4326923,1.07 14.5734615,1.84423077 L14.5953846,2.00115385 L15.4261538,12.6038462 C15.4736575,12.7914461 15.5,12.9888006 15.5,13.1923077 C15.5,14.466811 14.466811,15.5 13.1923077,15.5 L2.80769231,15.5 C1.53318904,15.5 0.5,14.466811 0.5,13.1923077 C0.5,12.9955723 0.524618576,12.8045869 0.570943125,12.622264 L1.40576923,1.99769231 C1.47269231,1.20153846 2.10961538,0.581923077 2.89653846,0.506923077 L3.05576923,0.5 L12.9442308,0.5 Z M13.1923077,12.0384615 L2.80769231,12.0384615 C2.19719993,12.0391387 1.69288679,12.5152428 1.65710912,13.1246863 C1.62133146,13.7341298 2.06647263,14.2659721 2.67269231,14.3380769 L2.80769231,14.3461538 L13.1923077,14.3461538 C13.8028001,14.3454767 14.3071132,13.8693725 14.3428909,13.2599291 C14.3786685,12.6504856 13.9335274,12.1186433 13.3273077,12.0465385 L13.1923077,12.0384615 Z M9.15384615,12.6153836 C9.45267971,12.6148345 9.70247041,12.8425673 9.72947147,13.140179 C9.75647253,13.4377907 9.55174553,13.70676 9.25769231,13.76 L9.15384615,13.7692318 L8.57692308,13.7692318 C8.27808952,13.7697809 8.02829882,13.5420481 8.00129776,13.2444364 C7.9742967,12.9468247 8.1790237,12.6778554 8.47307692,12.6246154 L8.57692308,12.6153836 L9.15384615,12.6153836 Z M12.0384615,12.6153836 C12.3372951,12.6148345 12.5870858,12.8425673 12.6140869,13.140179 C12.6410879,13.4377907 12.4363609,13.70676 12.1423077,13.76 L12.0384615,13.7692318 L11.4615385,13.7692318 C11.1627049,13.7697809 10.9129142,13.5420481 10.8859131,13.2444364 C10.8589121,12.9468247 11.0636391,12.6778554 11.3576923,12.6246154 L11.4615385,12.6153836 L12.0384615,12.6153836 Z M12.9442308,1.65384615 L3.05576923,1.65384615 C2.825,1.65384615 2.63115385,1.80384615 2.57115385,2.00346154 L2.555,2.09230769 L1.84798286,11.0930239 C2.14022434,10.9592051 2.46524765,10.8846154 2.80769231,10.8846154 L13.1923077,10.8846154 C13.5343619,10.8846154 13.8590344,10.959035 14.1510173,11.0925664 L13.445,2.09576923 C13.4227891,1.87723101 13.257643,1.70028872 13.0411538,1.66307692 L12.9442308,1.65384615 Z M9.10206766,2.96555119 C11.0540868,3.48858828 12.2125066,5.4950285 11.6894684,7.44705174 C11.1664204,9.39907138 9.15997974,10.5574895 7.20795687,10.0344515 C6.34493277,9.80319683 5.60527595,9.27115262 5.11222396,8.53247495 C4.94396499,8.28039178 5.01191463,7.93962304 5.26400248,7.77134641 C5.51609596,7.60309026 5.85686584,7.67104013 6.02512448,7.9231228 C6.37059329,8.44069122 6.88707159,8.81217232 7.49203537,8.9742707 C8.85853083,9.34041951 10.2631294,8.52947578 10.6292771,7.16298444 C10.9954259,5.79648898 10.1844822,4.39189042 8.8179909,4.02574272 C7.67390975,3.71918957 6.49547,4.23835621 5.93075217,5.22799406 L5.866,5.349 L5.89397891,5.3473741 C6.05101681,5.34836399 6.20416824,5.41679093 6.30932072,5.5408359 L6.36629944,5.6218425 C6.5178505,5.88432748 6.42791507,6.21997132 6.16543412,6.37151391 L5.21308969,6.92135615 C4.95060163,7.07289444 4.61497526,6.98296249 4.46342338,6.72047608 L3.91359542,5.76813854 C3.76204314,5.50565144 3.85197184,5.17002044 4.11446504,5.01846464 C4.31862372,4.90060077 4.56702749,4.92881332 4.73865591,5.07069043 L4.773,5.104 L4.79730162,5.04439609 C5.50692664,3.40123663 7.33104811,2.49100539 9.10206766,2.96555119 Z" id="形状结合" fill="#505255"></path>
                </g>
            </g>
        </g>
    </g>
</svg>