<?xml version="1.0" encoding="UTF-8"?>
<svg width="24px" height="24px" viewBox="0 0 24 24" version="1.1" xmlns="http://www.w3.org/2000/svg" xmlns:xlink="http://www.w3.org/1999/xlink">
    <title>icon/fill/24/消息-1</title>
    <g id="icon/fill/24/消息-1" stroke="none" stroke-width="1" fill="none" fill-rule="evenodd">
        <g>
            <rect id="Rectangle-45-Copy-13" x="0" y="0" width="24" height="24"></rect>
            <path d="M19.908027,17.5004908 L19.4984684,17.5004908 L19.4984684,17.5004908 L19.4984684,10.5 C19.4984684,6.6421875 16.7453433,3.46640625 13.0000308,3.046875 L13.0000308,2.4980895 C13.0000308,1.94685989 12.5531709,1.5 12.0019413,1.5 C11.4507117,1.5 11.0038518,1.94685989 11.0038518,2.4980895 L11.0038518,3.046875 L11.0038518,3.046875 C7.2585393,3.46640625 4.4984684,6.6421875 4.4984684,10.5 L4.4984684,17.5004908 L4.09197298,17.5004908 C3.48804707,17.5004908 2.9984684,17.9900695 2.9984684,18.5939954 C2.9984684,19.1979213 3.48804707,19.6875 4.09197298,19.6875 L10.3109684,19.6875 L10.3109684,19.6875 L10.3109684,20.8125 C10.3109684,21.7453125 11.0656559,22.5 11.9984684,22.5 C12.9312809,22.5 13.6859684,21.7453125 13.6859684,20.8125 L13.6859684,19.6875 L19.908027,19.6875 C20.5119529,19.6875 21.0015316,19.1979213 21.0015316,18.5939954 C21.0015316,17.9900695 20.5119529,17.5004908 19.908027,17.5004908 Z" id="Shape" fill="#505255"></path>
        </g>
    </g>
</svg>