<?xml version="1.0" encoding="UTF-8"?>
<svg width="24px" height="24px" viewBox="0 0 24 24" version="1.1" xmlns="http://www.w3.org/2000/svg" xmlns:xlink="http://www.w3.org/1999/xlink">
    <title>icon/fill/24/清晰模式</title>
    <g id="icon/fill/24/清晰模式" stroke="none" stroke-width="1" fill="none" fill-rule="evenodd">
        <rect id="矩形" fill="#FFFFFF" fill-rule="nonzero" opacity="0" x="0" y="0" width="24" height="24"></rect>
        <path d="M19.1629467,3.4814475 C21.6338424,4.48496061 23.2500586,6.88584841 23.2500586,9.55275 C23.2550916,11.6284547 22.2713787,13.5825118 20.601,14.81475 L13.4981506,21.5855627 C12.6464891,22.2875713 11.4113702,22.2681932 10.5821506,21.5398127 L3.04725,14.535 C1.58808093,13.2913719 0.748262451,11.469983 0.749930158,9.55275 C0.749930158,6.88584841 2.36615759,4.48496061 4.83705328,3.4814475 C7.30794897,2.4779344 10.1405259,3.07201775 12,4.98375 C13.8594741,3.07201775 16.692051,2.4779344 19.1629467,3.4814475 Z M12,6 C8.81817889,6 6.10091976,7.97908928 5,10.7727236 C6.10090361,13.5663579 8.81817889,15.5454472 12,15.5454472 C15.1850007,15.5454472 17.8990964,13.5663579 19,10.7727236 C17.8990802,7.97908927 15.1850007,6 12,6 Z M12,8 C13.6560057,8 15,9.34399429 15,11 C15,12.6560057 13.6559905,14 12,14 C10.3440095,14 9,12.6560057 9,11 C9,9.34399429 10.3439943,8 12,8 Z M12,9.90000101 C11.3931694,9.90000101 10.900001,10.3931694 10.900001,11 C10.900001,11.6068306 11.3931694,12.099999 12,12.099999 C12.6068306,12.099999 13.099999,11.6068306 13.099999,11 C13.099999,10.3931694 12.6068306,9.90000101 12,9.90000101 Z" id="形状结合" fill="#505255"></path>
    </g>
</svg>