<?xml version="1.0" encoding="UTF-8"?>
<svg width="24px" height="24px" viewBox="0 0 24 24" version="1.1" xmlns="http://www.w3.org/2000/svg" xmlns:xlink="http://www.w3.org/1999/xlink">
    <title>icon/fill/24/皮肤-2</title>
    <g id="icon/fill/24/皮肤-2" stroke="none" stroke-width="1" fill="none" fill-rule="evenodd">
        <g>
            <rect id="Rectangle-45-Copy-26" x="0" y="0" width="24" height="24"></rect>
            <path d="M19.5535714,3 L15.3444196,3 C15.3263393,3.07433036 15.291075,3.14553789 15.2801339,3.22098214 C15.1303842,4.25357994 14.2719412,5.84821429 12,5.84821429 C9.72805876,5.84821429 8.89745242,4.25357994 8.71986607,3.22098214 C8.70694511,3.14585164 8.67366071,3.07433036 8.65558036,3 L4.44642857,3 C3.646875,3 3,3.646875 3,4.44642857 L3,10.5535714 C3,11.353125 3.646875,12 4.44642857,12 L6.00529717,12 L6.00529717,19.5535714 C6.00529717,20.353125 6.65217217,21 7.45172574,21 L16.5580273,21 C17.3575809,21 18.0044559,20.353125 18.0044559,19.5535714 L18.0044559,12 L19.5535714,12 C20.353125,12 21,11.353125 21,10.5535714 L21,4.44642857 C21,3.646875 20.353125,3 19.5535714,3 Z" id="Shape" fill="#505255"></path>
        </g>
    </g>
</svg>