<?xml version="1.0" encoding="UTF-8"?>
<svg width="24px" height="24px" viewBox="0 0 24 24" version="1.1" xmlns="http://www.w3.org/2000/svg" xmlns:xlink="http://www.w3.org/1999/xlink">
    <title>icon/line/24/菜单收起</title>
    <g id="icon/line/24/菜单收起" stroke="none" stroke-width="1" fill="none" fill-rule="evenodd">
        <g id="Rectangle-48-Copy-10">
            <rect x="0" y="0" width="24" height="24"></rect>
        </g>
        <path d="M9.5625,10.359375 L20.8125,10.359375 C20.915625,10.359375 21,10.275 21,10.171875 L21,8.859375 C21,8.75625 20.915625,8.671875 20.8125,8.671875 L9.5625,8.671875 C9.459375,8.671875 9.375,8.75625 9.375,8.859375 L9.375,10.171875 C9.375,10.275 9.459375,10.359375 9.5625,10.359375 Z M9.375,15.140625 C9.375,15.24375 9.459375,15.328125 9.5625,15.328125 L20.8125,15.328125 C20.915625,15.328125 21,15.24375 21,15.140625 L21,13.828125 C21,13.725 20.915625,13.640625 20.8125,13.640625 L9.5625,13.640625 C9.459375,13.640625 9.375,13.725 9.375,13.828125 L9.375,15.140625 Z M21.1875,3.75 L2.8125,3.75 C2.709375,3.75 2.625,3.834375 2.625,3.9375 L2.625,5.25 C2.625,5.353125 2.709375,5.4375 2.8125,5.4375 L21.1875,5.4375 C21.290625,5.4375 21.375,5.353125 21.375,5.25 L21.375,3.9375 C21.375,3.834375 21.290625,3.75 21.1875,3.75 Z M21.1875,18.5625 L2.8125,18.5625 C2.709375,18.5625 2.625,18.646875 2.625,18.75 L2.625,20.0625 C2.625,20.165625 2.709375,20.25 2.8125,20.25 L21.1875,20.25 C21.290625,20.25 21.375,20.165625 21.375,20.0625 L21.375,18.75 C21.375,18.646875 21.290625,18.5625 21.1875,18.5625 Z M6.74238281,15.0492188 L3.07910156,12.1640625 C2.97363281,12.0820313 2.97363281,11.9226563 3.07910156,11.8382813 L6.74238281,8.95078125 C6.87832031,8.84296875 7.07988281,8.9390625 7.07988281,9.1125 L7.07988281,14.8851563 C7.07988281,15.0585938 6.88066406,15.1570313 6.74238281,15.0492188 L6.74238281,15.0492188 Z" id="形状备份" fill="#505255"></path>
    </g>
</svg>