<?xml version="1.0" encoding="UTF-8"?>
<svg width="24px" height="24px" viewBox="0 0 24 24" version="1.1" xmlns="http://www.w3.org/2000/svg" xmlns:xlink="http://www.w3.org/1999/xlink">
    <title>icon/line/24/菜单-2</title>
    <g id="icon/line/24/菜单-2" stroke="none" stroke-width="1" fill="none" fill-rule="evenodd">
        <g>
            <rect id="Rectangle-45-Copy-18" x="0" y="0" width="24" height="24"></rect>
            <path d="M2.99765625,5.01875 C2.99765625,5.83423295 3.6587358,6.4953125 4.47421875,6.4953125 C5.2897017,6.4953125 5.95078125,5.83423295 5.95078125,5.01875 C5.95078125,4.20326705 5.2897017,3.5421875 4.47421875,3.5421875 C3.6587358,3.5421875 2.99765625,4.20326705 2.99765625,5.01875 L2.99765625,5.01875 Z M20.0023437,6.00625 L9.00234375,6.00625 C8.450059,6.00625 8.00234375,5.55853475 8.00234375,5.00625 C8.00234375,4.45396525 8.450059,4.00625 9.00234375,4.00625 L20.0023437,4.00625 C20.5546285,4.00625 21.0023437,4.45396525 21.0023437,5.00625 C21.0023437,5.55853475 20.5546285,6.00625 20.0023437,6.00625 Z M20.0023437,13.00625 L9.00234375,13.00625 C8.450059,13.00625 8.00234375,12.5585347 8.00234375,12.00625 C8.00234375,11.4539653 8.450059,11.00625 9.00234375,11.00625 L20.0023437,11.00625 C20.5546285,11.00625 21.0023437,11.4539653 21.0023437,12.00625 C21.0023437,12.5585347 20.5546285,13.00625 20.0023437,13.00625 Z M20.0023437,20.00625 L9.00234375,20.00625 C8.450059,20.00625 8.00234375,19.5585347 8.00234375,19.00625 C8.00234375,18.4539653 8.450059,18.00625 9.00234375,18.00625 L20.0023437,18.00625 C20.5546285,18.00625 21.0023437,18.4539653 21.0023437,19.00625 C21.0023437,19.5585347 20.5546285,20.00625 20.0023437,20.00625 Z M2.99765625,12 C2.99765625,12.815483 3.6587358,13.4765625 4.47421875,13.4765625 C5.2897017,13.4765625 5.95078125,12.815483 5.95078125,12 C5.95078125,11.184517 5.2897017,10.5234375 4.47421875,10.5234375 C3.6587358,10.5234375 2.99765625,11.184517 2.99765625,12 Z M2.99765625,18.98125 C2.99765625,19.796733 3.6587358,20.4578125 4.47421875,20.4578125 C5.2897017,20.4578125 5.95078125,19.796733 5.95078125,18.98125 C5.95078125,18.165767 5.2897017,17.5046875 4.47421875,17.5046875 C3.6587358,17.5046875 2.99765625,18.165767 2.99765625,18.98125 L2.99765625,18.98125 Z" id="Shape" fill="#505255"></path>
        </g>
    </g>
</svg>