<?xml version="1.0" encoding="UTF-8"?>
<svg width="16px" height="16px" viewBox="0 0 16 16" version="1.1" xmlns="http://www.w3.org/2000/svg" xmlns:xlink="http://www.w3.org/1999/xlink">
    <title>icon_数据存储</title>
    <g id="新" stroke="none" stroke-width="1" fill="none" fill-rule="evenodd">
        <g id="设备管理-设备状态" transform="translate(-472, -224)">
            <g id="1-基础标签-2-图标-文字-中-默认备份" transform="translate(472, 220)">
                <g id="icon_数据存储" transform="translate(0, 4)">
                    <rect id="矩形" x="0" y="0" width="16" height="16"></rect>
                    <path d="M13.545047,10.9258534 C14.492928,10.9258534 15.2645884,11.6975138 15.2645884,12.6453948 L15.2645884,13.6804586 C15.2645884,14.6283396 14.492928,15.4 13.545047,15.4 L2.71954141,15.4 C1.77166044,15.4 1,14.6283396 1,13.6804586 L1,12.6453948 C1,11.6975138 1.77166044,10.9258534 2.71954141,10.9258534 L13.545047,10.9258534 Z M13.545047,12.0239856 L2.71954141,12.0239856 C2.37637511,12.0239856 2.09627721,12.3022285 2.09627721,12.6453948 L2.09627721,13.6804586 C2.09627721,14.0236249 2.37637511,14.3037228 2.71954141,14.3037228 L13.545047,14.3037228 C13.8882133,14.3037228 14.1683112,14.0236249 14.1683112,13.6804586 L14.1683112,12.6453948 C14.1683112,12.3022285 13.8882133,12.0239856 13.545047,12.0239856 Z M4.38157929,12.6138606 C4.68579158,12.6138606 4.93064537,12.8587144 4.93064537,13.1629267 C4.93064537,13.467139 4.68393662,13.7119928 4.38157929,13.7119928 L3.46708747,13.7119928 C3.16287518,13.7119928 2.91802138,13.467139 2.91802138,13.1629267 C2.91802138,12.8587144 3.16473013,12.6138606 3.46708747,12.6138606 L4.38157929,12.6138606 Z M13.545047,5.96199923 C14.492928,5.96199923 15.2645884,6.73365967 15.2645884,7.68154064 L15.2645884,8.71660441 C15.2645884,9.66448538 14.492928,10.4361458 13.545047,10.4361458 L2.71954141,10.4361458 C1.77166044,10.4361458 1,9.66448538 1,8.71660441 L1,7.68154064 C1,6.73365967 1.77166044,5.96199923 2.71954141,5.96199923 L13.545047,5.96199923 Z M13.545047,7.06013139 L2.71954141,7.06013139 C2.37637511,7.06013139 2.09627721,7.34022929 2.09627721,7.68339559 L2.09627721,8.71845936 C2.09627721,9.06162566 2.37637511,9.34172356 2.71954141,9.34172356 L13.545047,9.34172356 C13.8882133,9.34172356 14.1683112,9.06162566 14.1683112,8.71845936 L14.1683112,7.68339559 C14.1683112,7.34022929 13.8882133,7.06013139 13.545047,7.06013139 Z M4.38157929,7.65186139 C4.68579158,7.65186139 4.93064537,7.89671519 4.93064537,8.20092748 C4.93064537,8.50513977 4.68393662,8.74999356 4.38157929,8.74999356 L3.46708747,8.74999356 C3.16287518,8.74999356 2.91802138,8.50513977 2.91802138,8.20092748 C2.91802138,7.89671519 3.16473013,7.65186139 3.46708747,7.65186139 L4.38157929,7.65186139 Z M13.545047,1 C14.492928,1 15.2645884,1.77166044 15.2645884,2.71954141 L15.2645884,3.75460518 C15.2645884,4.70248615 14.492928,5.47414659 13.545047,5.47414659 L2.71954141,5.47414659 C1.77166044,5.47414659 1,4.70248615 1,3.75460518 L1,2.71954141 C1,1.77166044 1.77166044,1 2.71954141,1 L13.545047,1 Z M13.545047,2.09627721 L2.71954141,2.09627721 C2.37637511,2.09627721 2.09627721,2.37637511 2.09627721,2.71954141 L2.09627721,3.75460518 C2.09627721,4.09777148 2.37637511,4.37786938 2.71954141,4.37786938 L13.545047,4.37786938 C13.8882133,4.37786938 14.1683112,4.09777148 14.1683112,3.75460518 L14.1683112,2.71954141 C14.1683112,2.37637511 13.8882133,2.09627721 13.545047,2.09627721 Z M4.38157929,2.68800721 C4.68579158,2.68800721 4.93064537,2.93286101 4.93064537,3.2370733 C4.93064537,3.54128559 4.68393662,3.78613938 4.38157929,3.78613938 L3.46708747,3.78613938 C3.16287518,3.78613938 2.91802138,3.54128559 2.91802138,3.2370733 C2.91802138,2.93286101 3.16473013,2.68800721 3.46708747,2.68800721 L4.38157929,2.68800721 Z" id="形状结合" fill="#505255"></path>
                </g>
            </g>
        </g>
    </g>
</svg>