<?xml version="1.0" encoding="UTF-8"?>
<svg width="16px" height="16px" viewBox="0 0 16 16" version="1.1" xmlns="http://www.w3.org/2000/svg" xmlns:xlink="http://www.w3.org/1999/xlink">
    <title>icon_设备升级</title>
    <g id="新" stroke="none" stroke-width="1" fill="none" fill-rule="evenodd">
        <g id="设备管理-设备状态" transform="translate(-572, -224)">
            <g id="1-基础标签-2-图标-文字-中-默认备份-2" transform="translate(572, 220)">
                <g id="icon_设备升级" transform="translate(0, 4)">
                    <rect id="矩形" x="0" y="0" width="16" height="16"></rect>
                    <path d="M12.9442308,0.5 C13.7496154,0.5 14.4326923,1.07 14.5734615,1.84423077 L14.5953846,2.00115385 L15.4261538,12.6038462 C15.4736575,12.7914461 15.5,12.9888006 15.5,13.1923077 C15.5,14.466811 14.466811,15.5 13.1923077,15.5 L2.80769231,15.5 C1.53318904,15.5 0.5,14.466811 0.5,13.1923077 C0.5,12.9955723 0.524618576,12.8045869 0.570943125,12.622264 L1.40576923,1.99769231 C1.47269231,1.20153846 2.10961538,0.581923077 2.89653846,0.506923077 L3.05576923,0.5 L12.9442308,0.5 Z M13.1923077,12.0384615 L2.80769231,12.0384615 C2.19719993,12.0391387 1.69288679,12.5152428 1.65710912,13.1246863 C1.62133146,13.7341298 2.06647263,14.2659721 2.67269231,14.3380769 L2.80769231,14.3461538 L13.1923077,14.3461538 C13.8028001,14.3454767 14.3071132,13.8693725 14.3428909,13.2599291 C14.3786685,12.6504856 13.9335274,12.1186433 13.3273077,12.0465385 L13.1923077,12.0384615 Z M9.15384615,12.6153836 C9.45267971,12.6148345 9.70247041,12.8425673 9.72947147,13.140179 C9.75647253,13.4377907 9.55174553,13.70676 9.25769231,13.76 L9.15384615,13.7692318 L8.57692308,13.7692318 C8.27808952,13.7697809 8.02829882,13.5420481 8.00129776,13.2444364 C7.9742967,12.9468247 8.1790237,12.6778554 8.47307692,12.6246154 L8.57692308,12.6153836 L9.15384615,12.6153836 Z M12.0384615,12.6153836 C12.3372951,12.6148345 12.5870858,12.8425673 12.6140869,13.140179 C12.6410879,13.4377907 12.4363609,13.70676 12.1423077,13.76 L12.0384615,13.7692318 L11.4615385,13.7692318 C11.1627049,13.7697809 10.9129142,13.5420481 10.8859131,13.2444364 C10.8589121,12.9468247 11.0636391,12.6778554 11.3576923,12.6246154 L11.4615385,12.6153836 L12.0384615,12.6153836 Z M12.9442308,1.65384615 L3.05576923,1.65384615 C2.825,1.65384615 2.63115385,1.80384615 2.57115385,2.00346154 L2.555,2.09230769 L1.84798286,11.0930239 C2.14022434,10.9592051 2.46524765,10.8846154 2.80769231,10.8846154 L13.1923077,10.8846154 C13.5343619,10.8846154 13.8590344,10.959035 14.1510173,11.0925664 L13.445,2.09576923 C13.4227891,1.87723101 13.257643,1.70028872 13.0411538,1.66307692 L12.9442308,1.65384615 Z M8.32769231,3.58538462 L8.40846154,3.65230769 L10.8546154,6.10076923 C11.0640787,6.31191387 11.0787025,6.64769202 10.8883888,6.87624765 C10.6980752,7.10480328 10.3652003,7.15122634 10.1196154,6.98346154 L10.0388462,6.91653846 L8.576,5.453 L8.57692407,8.47769231 C8.5774732,8.77652586 8.34974041,9.02631656 8.05212869,9.05331762 C7.75451697,9.08031869 7.4855477,8.87559168 7.43230769,8.58153846 L7.42307593,8.47769231 L7.423,5.452 L5.96,6.91538462 C5.76300656,7.11260725 5.45317493,7.14077376 5.22384615,6.98230769 L5.14423077,6.91538462 C4.94700813,6.71839118 4.91884162,6.40855954 5.07730769,6.17923077 L5.14423077,6.09846154 L7.59153846,3.65230769 C7.7885319,3.45508506 8.09836353,3.42691854 8.32769231,3.58538462 Z" id="形状结合" fill="#505255"></path>
                </g>
            </g>
        </g>
    </g>
</svg>