<?xml version="1.0" encoding="UTF-8"?>
<svg width="16px" height="16px" viewBox="0 0 16 16" version="1.1" xmlns="http://www.w3.org/2000/svg" xmlns:xlink="http://www.w3.org/1999/xlink">
    <title>icon_网络配置</title>
    <g id="新" stroke="none" stroke-width="1" fill="none" fill-rule="evenodd">
        <g id="设备管理-设备状态" transform="translate(-372, -224)">
            <g id="1-基础标签-2-图标-文字-中-默认" transform="translate(372, 220)">
                <g id="icon_网络配置" transform="translate(0, 4)">
                    <rect id="矩形" x="0" y="0" width="16" height="16"></rect>
                    <path d="M7.89699689,7.81416983e-05 C8.02271268,7.81416983e-05 8.14312535,0.0508174507 8.23096795,0.140751542 C8.31881055,0.230685632 8.36665197,0.352257477 8.36365873,0.477937639 L8.36365873,15.5333381 C8.36808406,15.6748143 8.30649525,15.8103097 8.19699379,15.900001 L8.19699379,15.988889 L7.98588485,16 C3.64117384,15.9769949 0.104411374,12.4993426 0.00818924099,8.15563635 C0.000903336163,8.08545529 0.000903336163,8.01470847 0.00818924099,7.94452741 C-0.002729747,7.83739862 -0.002729747,7.7294373 0.00818924099,7.6223085 C0.204989884,3.63479227 3.319128,0.406722267 7.29700306,0.0668307608 C7.49364684,0.0208777835 7.69506205,-0.00150168471 7.89699689,7.81416983e-05 Z M4.65258585,10.7222766 C4.82057712,11.5471637 5.10489591,12.3440046 5.4970216,13.0889189 C5.86299116,13.955629 6.56449435,14.6370892 7.44144602,14.9777883 L7.44144602,11.0222735 C6.50573535,10.9906828 5.57360821,10.8904141 4.65258585,10.7222766 Z M10.2080842,1.61125929 C10.611811,1.60532244 11.0013562,1.76003089 11.2910022,2.04134175 C11.5806482,2.32265261 11.7466619,2.70751576 11.7525127,3.11124385 C11.8495438,3.5169132 12.0709831,3.88209374 12.3858395,4.15567754 C12.6488832,4.12244056 12.9022792,4.03545389 13.1302763,3.90012461 C13.3510679,3.77685273 13.5996186,3.71184715 13.8524911,3.71123766 C14.4072648,3.71220329 14.9195353,4.00855812 15.1969217,4.48900744 L15.6969165,5.36677617 C15.9069585,5.72562513 15.9668542,6.15288126 15.8635815,6.55565283 C15.7594161,6.93366367 15.5123954,7.25638431 15.1746997,7.45564356 C14.9328634,7.57650493 14.73193,7.76584598 14.5969279,8.00008238 L14.5969279,8.48896624 C14.73193,8.72320264 14.9328634,8.9125437 15.1746997,9.03340507 C15.5123954,9.23266432 15.7594161,9.55538497 15.8635815,9.93339581 C15.9759488,10.3175269 15.9402694,10.7298227 15.7635825,11.0889395 L15.2635877,11.9667082 C15.0536623,12.3270869 14.7104579,12.5904763 14.308042,12.700034 C14.1789712,12.7170359 14.0482279,12.7170359 13.9191571,12.700034 C13.6660919,12.700926 13.4171668,12.6358225 13.1969423,12.511147 C13.035404,12.4435342 12.860717,12.4131538 12.6858365,12.4222591 C12.44515,12.4200753 12.2054822,12.4537786 11.9747327,12.522258 C11.869374,12.7678811 11.816395,13.0327763 11.8191787,13.3000278 C11.8133279,13.7037559 11.6473142,14.088619 11.3576682,14.3699299 C11.0680222,14.6512408 10.678477,14.8059492 10.2747502,14.8000124 L9.41920343,14.8555673 L9.41920343,13.8777996 L10.2080842,13.8777996 C10.3525103,13.8838151 10.4934,13.8321485 10.5996967,13.7341888 C10.7059934,13.6362291 10.7689702,13.5000187 10.774745,13.3555828 C10.7163425,12.7189566 10.9839241,12.0959931 11.4858488,11.7000443 C11.8402208,11.5636624 12.2172625,11.4957949 12.5969485,11.5000463 C12.9404235,11.4853969 13.2816421,11.5620753 13.5858272,11.7222663 C13.6598233,11.7660822 13.7442736,11.7891141 13.8302691,11.7889323 L13.9747121,11.7889323 C14.123311,11.7431288 14.2498659,11.6442578 14.330264,11.5111573 L14.8302588,10.6333886 C14.9168614,10.502294 14.9412531,10.3396829 14.8969248,10.1889487 C14.8631794,10.0585523 14.7793258,9.94674738 14.6635939,9.87784084 C14.108044,9.55562193 13.5524942,8.9889611 13.6080492,8.45563325 L13.6080492,8.01119339 C13.6080492,7.50008755 14.108044,6.90009372 14.6635939,6.6112078 C14.7793258,6.54230125 14.8631794,6.43049637 14.8969248,6.3000999 C14.9416314,6.14575432 14.9173179,5.97961182 14.8302588,5.84454903 L14.330264,4.9778913 C14.2317818,4.79323721 14.0395437,4.67789437 13.8302691,4.67789437 C13.7444846,4.67924791 13.660421,4.70217434 13.5858272,4.74456035 C13.2157857,4.96771907 12.7953909,5.09383752 12.3636175,5.11122326 C12.16629,5.12258098 11.9708057,5.06784538 11.8080677,4.95566929 C11.2094099,4.51103572 10.8101803,3.84831448 10.696968,3.11124385 C10.6911932,2.96680793 10.6282164,2.83059753 10.5219197,2.73263785 C10.415623,2.63467817 10.2747333,2.58301155 10.1303072,2.589027 L9.33031545,2.589027 L9.33031545,1.61125929 L10.2080842,1.61125929 Z M1.132,9.508 C1.60838007,11.7454884 3.15701339,13.6138127 5.27480167,14.5000154 C5.04079429,14.1996357 4.83264528,13.8799783 4.65258585,13.5444697 C4.16395949,12.5903762 3.82304019,11.5676183 3.64148515,10.5111676 C3.26371126,10.4148723 2.89334471,10.3037624 2.53038548,10.1778377 C2.13362333,10.043237 1.75103839,9.87066977 1.38790724,9.66267039 L1.132,9.508 Z M9.71920034,6.04454687 C10.2907254,6.04437404 10.8386742,6.27235274 11.2414069,6.67787378 C11.6501128,7.07845914 11.8786748,7.6278097 11.8747337,8.20008032 C11.8747337,8.77176331 11.6476335,9.32003166 11.2433926,9.72427258 C10.8391517,10.1285135 10.2908833,10.3556137 9.71920034,10.3556137 L9.35253745,10.3556137 L9.35253745,9.37784597 L9.71920034,9.37784597 C10.3696623,9.37784597 10.896966,8.85054233 10.896966,8.20008032 C10.9050917,7.88610826 10.7799573,7.5833637 10.5525251,7.36675557 C10.3314392,7.14594472 10.0316685,7.0220395 9.71920034,7.02231468 L9.35253745,7.02231468 L9.35253745,6.04454687 L9.71920034,6.04454687 Z M7.41922403,5.75566106 C6.43471656,5.77226932 5.45340821,5.8726304 4.48592089,6.05565796 C4.39614443,6.69989262 4.35159148,7.34962323 4.35257255,8.00008238 C4.3541805,8.57625966 4.39501533,9.15165948 4.4748099,9.72228687 L4.4636989,9.72228687 C5.43652579,9.92733874 6.4255215,10.0463157 7.41922403,10.0778388 L7.41922403,5.75566106 Z M3.54148619,6.27787791 L3.49704219,6.27787791 L2.8081604,6.50009784 C1.69706073,6.87787172 1.06373392,7.35564458 0.941512955,7.81119545 L0.941512955,8.02230439 C1.01928993,8.32230129 1.58595076,8.82229615 2.86371538,9.288958 L3.4748202,9.47784495 C3.4748202,8.9889611 3.39704323,8.48896625 3.39704323,8.00008238 C3.41155212,7.42368794 3.45978223,6.84863663 3.54148619,6.27787791 Z M5.20813569,1.5668153 L5.19702469,1.5668153 C3.21765491,2.42565414 1.73719059,4.13923025 1.17484389,6.22232292 C1.58871013,5.96926035 2.02818862,5.76069428 2.48594149,5.60010711 C2.84149338,5.47788614 3.24148926,5.35566518 3.66370714,5.25566621 C3.84872944,4.28048104 4.17434403,3.33732155 4.63036385,2.45569504 C4.79948981,2.14479413 4.99266929,1.84759493 5.20813569,1.5668153 Z M7.41922403,1.01126547 C6.54366602,1.35413217 5.84289547,2.03488071 5.47479961,2.90013492 C5.11862301,3.58101857 4.85339562,4.30572438 4.68591884,5.05566827 C5.58975082,4.90533634 6.50318954,4.81993354 7.41922403,4.80011534 L7.41922403,1.01126547 Z" id="形状结合" fill="#505255"></path>
                </g>
            </g>
        </g>
    </g>
</svg>